<svg viewBox="0 0 80 80" xmlns="http://www.w3.org/2000/svg">
  <circle cx="40" cy="40" r="36" fill="#3D1A00" stroke="#FFD700" stroke-width="2.5"/>
  <ellipse cx="40" cy="12" rx="4" ry="7" fill="#FF6B00" opacity=".6" transform="rotate(0 40 40)"/>
  <ellipse cx="40" cy="12" rx="4" ry="7" fill="#FF6B00" opacity=".6" transform="rotate(45 40 40)"/>
  <ellipse cx="40" cy="12" rx="4" ry="7" fill="#FF6B00" opacity=".6" transform="rotate(90 40 40)"/>
  <ellipse cx="40" cy="12" rx="4" ry="7" fill="#FF6B00" opacity=".6" transform="rotate(135 40 40)"/>
  <ellipse cx="40" cy="12" rx="4" ry="7" fill="#FF6B00" opacity=".6" transform="rotate(180 40 40)"/>
  <ellipse cx="40" cy="12" rx="4" ry="7" fill="#FF6B00" opacity=".6" transform="rotate(225 40 40)"/>
  <ellipse cx="40" cy="12" rx="4" ry="7" fill="#FF6B00" opacity=".6" transform="rotate(270 40 40)"/>
  <ellipse cx="40" cy="12" rx="4" ry="7" fill="#FF6B00" opacity=".6" transform="rotate(315 40 40)"/>
  <rect x="26" y="26" width="28" height="28" rx="6" fill="#FFD700" transform="rotate(45 40 40)"/>
  <rect x="30" y="30" width="20" height="20" rx="4" fill="#FF6B00" transform="rotate(45 40 40)"/>
  <circle cx="40" cy="40" r="5" fill="#FFD700"/>
  <circle cx="40" cy="40" r="2.5" fill="#1A0A00"/>
</svg>
